<?xml version="1.0" encoding="utf-8" standalone="no"?>
<!DOCTYPE svg PUBLIC "-//W3C//DTD SVG 1.1//EN"
  "http://www.w3.org/Graphics/SVG/1.1/DTD/svg11.dtd">
<svg xmlns:xlink="http://www.w3.org/1999/xlink" width="406.424404pt" height="379.065261pt" viewBox="0 0 406.424404 379.065261" xmlns="http://www.w3.org/2000/svg" version="1.1">
 <metadata>
  <rdf:RDF xmlns:dc="http://purl.org/dc/elements/1.1/" xmlns:cc="http://creativecommons.org/ns#" xmlns:rdf="http://www.w3.org/1999/02/22-rdf-syntax-ns#">
   <cc:Work>
    <dc:type rdf:resource="http://purl.org/dc/dcmitype/StillImage"/>
    <dc:date>1980-01-01T00:00:00+00:00</dc:date>
    <dc:format>image/svg+xml</dc:format>
    <dc:creator>
     <cc:Agent>
      <dc:title>Matplotlib v3.10.3, https://matplotlib.org/</dc:title>
     </cc:Agent>
    </dc:creator>
   </cc:Work>
  </rdf:RDF>
 </metadata>
 <defs>
  <style type="text/css">*{stroke-linejoin: round; stroke-linecap: butt}</style>
 </defs>
 <g id="figure_1">
  <g id="patch_1">
   <path d="M 0 379.065261 
L 406.424404 379.065261 
L 406.424404 0 
L 0 0 
z
" style="fill: #ffffff"/>
  </g>
  <g id="axes_1">
   <g id="patch_2">
    <path d="M 71.624404 332.64 
L 406.424404 332.64 
L 406.424404 0 
L 71.624404 0 
z
" style="fill: #ffffff"/>
   </g>
   <g id="FillBetweenPolyCollection_1">
    <defs>
     <path id="ma25a9bff6c" d="M 86.842586 -214.490152 
L 86.842586 -214.488248 
L 90.01304 -214.550048 
L 93.183495 -214.432582 
L 96.35395 -214.558307 
L 99.524404 -214.532109 
L 102.694859 -214.555317 
L 105.865313 -214.552423 
L 109.035768 -214.178613 
L 112.206222 -214.502419 
L 115.376677 -214.332111 
L 118.547131 -214.553416 
L 121.717586 -214.48167 
L 124.88804 -214.435899 
L 128.058495 -214.282014 
L 131.22895 -214.239078 
L 134.399404 -214.423302 
L 137.569859 -214.111954 
L 140.740313 -214.396656 
L 143.910768 -212.532113 
L 147.081222 -214.29707 
L 150.251677 -213.389061 
L 153.422131 -214.150764 
L 156.592586 -214.372892 
L 159.76304 -213.966883 
L 162.933495 -214.506428 
L 166.10395 -214.385503 
L 169.274404 -214.363996 
L 172.444859 -211.935323 
L 175.615313 -213.158913 
L 178.785768 -213.302185 
L 181.956222 -214.403884 
L 185.126677 -211.537105 
L 188.297131 -214.342942 
L 191.467586 -360.156821 
L 194.63804 -363.22913 
L 197.808495 -362.868865 
L 200.97895 -362.473966 
L 204.149404 -361.335386 
L 207.319859 -359.047246 
L 210.490313 -355.601503 
L 213.660768 -348.940638 
L 216.831222 -346.958229 
L 220.001677 -338.290088 
L 223.172131 -335.946969 
L 226.342586 -66.556117 
L 229.51304 -61.636457 
L 232.683495 -332.779739 
L 235.85395 -62.94801 
L 239.024404 -61.576096 
L 242.194859 -61.556093 
L 245.365313 -61.56119 
L 248.535768 -61.545261 
L 251.706222 -359.074747 
L 254.876677 -359.044032 
L 258.047131 -358.96531 
L 261.217586 -358.970867 
L 264.38804 -359.11109 
L 267.558495 -358.844866 
L 270.72895 -358.946875 
L 273.899404 -358.9251 
L 277.069859 -358.79253 
L 280.240313 -358.956541 
L 283.410768 -358.091287 
L 286.581222 -356.740381 
L 289.751677 -356.378848 
L 292.922131 -355.983537 
L 296.092586 -356.735211 
L 299.26304 -357.520276 
L 302.433495 -357.963589 
L 305.60395 -357.658984 
L 308.774404 -357.892717 
L 311.944859 -357.529505 
L 315.115313 -354.974797 
L 318.285768 -354.878012 
L 321.456222 -353.818801 
L 324.626677 -354.097988 
L 327.797131 -353.960949 
L 330.967586 -353.544821 
L 334.13804 -353.845544 
L 337.308495 -353.933909 
L 340.47895 -353.906465 
L 343.649404 -354.016058 
L 346.819859 -355.212708 
L 349.990313 -355.031521 
L 353.160768 -357.633304 
L 356.331222 -357.774465 
L 359.501677 -358.054966 
L 362.672131 -358.025193 
L 365.842586 -358.000146 
L 369.01304 -358.006906 
L 372.183495 -358.072242 
L 375.35395 -358.306105 
L 378.524404 -358.104508 
L 381.694859 -358.244279 
L 384.865313 -358.366925 
L 388.035768 -358.201003 
L 391.206222 -358.21427 
L 391.206222 -358.358564 
L 391.206222 -358.358564 
L 388.035768 -358.262539 
L 384.865313 -358.387468 
L 381.694859 -358.312008 
L 378.524404 -358.150695 
L 375.35395 -358.343446 
L 372.183495 -358.121694 
L 369.01304 -358.070798 
L 365.842586 -358.075328 
L 362.672131 -358.151286 
L 359.501677 -358.171441 
L 356.331222 -358.086927 
L 353.160768 -357.873586 
L 349.990313 -357.698771 
L 346.819859 -356.894916 
L 343.649404 -354.897632 
L 340.47895 -354.603549 
L 337.308495 -354.502841 
L 334.13804 -354.311128 
L 330.967586 -354.210778 
L 327.797131 -354.186451 
L 324.626677 -354.554644 
L 321.456222 -354.194063 
L 318.285768 -356.758136 
L 315.115313 -355.125126 
L 311.944859 -358.372818 
L 308.774404 -358.091252 
L 305.60395 -358.138075 
L 302.433495 -358.127233 
L 299.26304 -357.9611 
L 296.092586 -357.006833 
L 292.922131 -356.658508 
L 289.751677 -356.568449 
L 286.581222 -356.824628 
L 283.410768 -358.348474 
L 280.240313 -359.017307 
L 277.069859 -358.893419 
L 273.899404 -359.03809 
L 270.72895 -359.118559 
L 267.558495 -358.984473 
L 264.38804 -359.149699 
L 261.217586 -359.185454 
L 258.047131 -359.089077 
L 254.876677 -359.120676 
L 251.706222 -359.43473 
L 248.535768 -352.416718 
L 245.365313 -348.423796 
L 242.194859 -344.555362 
L 239.024404 -351.621473 
L 235.85395 -351.910979 
L 232.683495 -353.566687 
L 229.51304 -344.354072 
L 226.342586 -354.172254 
L 223.172131 -354.943343 
L 220.001677 -350.808758 
L 216.831222 -355.872816 
L 213.660768 -354.720739 
L 210.490313 -359.193269 
L 207.319859 -361.466721 
L 204.149404 -361.77065 
L 200.97895 -362.969197 
L 197.808495 -363.491307 
L 194.63804 -363.664881 
L 191.467586 -363.945261 
L 188.297131 -214.536821 
L 185.126677 -213.45641 
L 181.956222 -214.526438 
L 178.785768 -213.819185 
L 175.615313 -213.36655 
L 172.444859 -211.976515 
L 169.274404 -214.387876 
L 166.10395 -214.389275 
L 162.933495 -214.516205 
L 159.76304 -214.041013 
L 156.592586 -214.488889 
L 153.422131 -214.295026 
L 150.251677 -214.447641 
L 147.081222 -214.382489 
L 143.910768 -213.68033 
L 140.740313 -214.480388 
L 137.569859 -214.262941 
L 134.399404 -214.493192 
L 131.22895 -214.247751 
L 128.058495 -214.285304 
L 124.88804 -214.441068 
L 121.717586 -214.484163 
L 118.547131 -214.555376 
L 115.376677 -214.333586 
L 112.206222 -214.503203 
L 109.035768 -214.180413 
L 105.865313 -214.553103 
L 102.694859 -214.556265 
L 99.524404 -214.532578 
L 96.35395 -214.55859 
L 93.183495 -214.434094 
L 90.01304 -214.550832 
L 86.842586 -214.490152 
z
" style="stroke: #3498db; stroke-opacity: 0.3"/>
    </defs>
    <g clip-path="url(#p289ab2a467)">
     <use xlink:href="#ma25a9bff6c" x="0" y="379.065261" style="fill: #3498db; fill-opacity: 0.3; stroke: #3498db; stroke-opacity: 0.3"/>
    </g>
   </g>
   <g id="matplotlib.axis_1">
    <g id="xtick_1">
     <g id="line2d_1">
      <path d="M 83.672131 332.64 
L 83.672131 0 
" clip-path="url(#p289ab2a467)" style="fill: none; stroke: #b0b0b0; stroke-opacity: 0.1; stroke-width: 0.8; stroke-linecap: square"/>
     </g>
     <g id="line2d_2">
      <defs>
       <path id="m954ed0164d" d="M 0 0 
L 0 3.5 
" style="stroke: #000000; stroke-width: 0.8"/>
      </defs>
      <g>
       <use xlink:href="#m954ed0164d" x="83.672131" y="332.64" style="stroke: #000000; stroke-width: 0.8"/>
      </g>
     </g>
     <g id="text_1">
      <!-- $\mathdefault{0}$ -->
      <g transform="translate(79.103084 353.476997) scale(0.2 -0.2)">
       <defs>
        <path id="CMR17-30" d="M 2688 2025 
C 2688 2416 2682 3080 2413 3591 
C 2176 4039 1798 4198 1466 4198 
C 1158 4198 768 4058 525 3597 
C 269 3118 243 2524 243 2025 
C 243 1661 250 1106 448 619 
C 723 -39 1216 -128 1466 -128 
C 1760 -128 2208 -7 2470 600 
C 2662 1042 2688 1559 2688 2025 
z
M 1466 -26 
C 1056 -26 813 325 723 812 
C 653 1188 653 1738 653 2096 
C 653 2588 653 2997 736 3387 
C 858 3929 1216 4096 1466 4096 
C 1728 4096 2067 3923 2189 3400 
C 2272 3036 2278 2607 2278 2096 
C 2278 1680 2278 1169 2202 792 
C 2067 95 1690 -26 1466 -26 
z
" transform="scale(0.015625)"/>
       </defs>
       <use xlink:href="#CMR17-30" transform="scale(0.996264)"/>
      </g>
     </g>
    </g>
    <g id="xtick_2">
     <g id="line2d_3">
      <path d="M 207.518012 332.64 
L 207.518012 0 
" clip-path="url(#p289ab2a467)" style="fill: none; stroke: #b0b0b0; stroke-opacity: 0.1; stroke-width: 0.8; stroke-linecap: square"/>
     </g>
     <g id="line2d_4">
      <g>
       <use xlink:href="#m954ed0164d" x="207.518012" y="332.64" style="stroke: #000000; stroke-width: 0.8"/>
      </g>
     </g>
     <g id="text_2">
      <!-- $\mathdefault{20000}$ -->
      <g transform="translate(184.672773 353.476997) scale(0.2 -0.2)">
       <defs>
        <path id="CMR17-32" d="M 2669 989 
L 2554 989 
C 2490 536 2438 459 2413 420 
C 2381 369 1920 369 1830 369 
L 602 369 
C 832 619 1280 1072 1824 1597 
C 2214 1967 2669 2402 2669 3035 
C 2669 3790 2067 4224 1395 4224 
C 691 4224 262 3604 262 3030 
C 262 2780 448 2748 525 2748 
C 589 2748 781 2787 781 3010 
C 781 3207 614 3264 525 3264 
C 486 3264 448 3258 422 3245 
C 544 3790 915 4058 1306 4058 
C 1862 4058 2227 3617 2227 3035 
C 2227 2479 1901 2000 1536 1584 
L 262 146 
L 262 0 
L 2515 0 
L 2669 989 
z
" transform="scale(0.015625)"/>
       </defs>
       <use xlink:href="#CMR17-32" transform="scale(0.996264)"/>
       <use xlink:href="#CMR17-30" transform="translate(45.690477 0) scale(0.996264)"/>
       <use xlink:href="#CMR17-30" transform="translate(91.380954 0) scale(0.996264)"/>
       <use xlink:href="#CMR17-30" transform="translate(137.071431 0) scale(0.996264)"/>
       <use xlink:href="#CMR17-30" transform="translate(182.761908 0) scale(0.996264)"/>
      </g>
     </g>
    </g>
    <g id="xtick_3">
     <g id="line2d_5">
      <path d="M 331.363893 332.64 
L 331.363893 0 
" clip-path="url(#p289ab2a467)" style="fill: none; stroke: #b0b0b0; stroke-opacity: 0.1; stroke-width: 0.8; stroke-linecap: square"/>
     </g>
     <g id="line2d_6">
      <g>
       <use xlink:href="#m954ed0164d" x="331.363893" y="332.64" style="stroke: #000000; stroke-width: 0.8"/>
      </g>
     </g>
     <g id="text_3">
      <!-- $\mathdefault{40000}$ -->
      <g transform="translate(308.518654 353.476997) scale(0.2 -0.2)">
       <defs>
        <path id="CMR17-34" d="M 2150 4122 
C 2150 4256 2144 4256 2029 4256 
L 128 1254 
L 128 1088 
L 1779 1088 
L 1779 457 
C 1779 224 1766 160 1318 160 
L 1197 160 
L 1197 0 
C 1402 0 1747 0 1965 0 
C 2182 0 2528 0 2733 0 
L 2733 160 
L 2611 160 
C 2163 160 2150 224 2150 457 
L 2150 1088 
L 2803 1088 
L 2803 1254 
L 2150 1254 
L 2150 4122 
z
M 1798 3703 
L 1798 1254 
L 256 1254 
L 1798 3703 
z
" transform="scale(0.015625)"/>
       </defs>
       <use xlink:href="#CMR17-34" transform="scale(0.996264)"/>
       <use xlink:href="#CMR17-30" transform="translate(45.690477 0) scale(0.996264)"/>
       <use xlink:href="#CMR17-30" transform="translate(91.380954 0) scale(0.996264)"/>
       <use xlink:href="#CMR17-30" transform="translate(137.071431 0) scale(0.996264)"/>
       <use xlink:href="#CMR17-30" transform="translate(182.761908 0) scale(0.996264)"/>
      </g>
     </g>
    </g>
    <g id="text_4">
     <!-- Training Steps -->
     <g transform="translate(182.691896 375.189627) scale(0.2 -0.2)">
      <defs>
       <path id="CMSS17-54" d="M 2317 3968 
L 2848 3968 
C 2925 3968 3002 3968 3078 3968 
L 3878 3968 
L 3878 4376 
L 218 4376 
L 218 3968 
L 1018 3968 
C 1094 3968 1171 3968 1248 3968 
L 1779 3968 
L 1779 -32 
L 2317 -32 
L 2317 3968 
z
" transform="scale(0.015625)"/>
       <path id="CMSS17-72" d="M 954 1363 
C 954 1965 1395 2368 1958 2368 
L 1958 2789 
C 1549 2789 1165 2585 934 2253 
L 934 2758 
L 480 2758 
L 480 0 
L 954 0 
L 954 1363 
z
" transform="scale(0.015625)"/>
       <path id="CMSS17-61" d="M 2406 1791 
C 2406 2392 1978 2808 1402 2808 
C 1120 2808 813 2757 461 2553 
L 499 2135 
C 659 2248 934 2432 1395 2432 
C 1722 2432 1920 2180 1920 1782 
L 1920 1536 
C 896 1536 256 1238 256 726 
C 256 461 416 -64 947 -64 
C 1043 -64 1562 -64 1933 217 
L 1933 -19 
L 2406 -19 
L 2406 1791 
z
M 1920 816 
C 1920 701 1920 548 1728 434 
C 1562 325 1350 325 1261 325 
C 941 325 723 511 723 744 
C 723 1211 1722 1211 1920 1211 
L 1920 816 
z
" transform="scale(0.015625)"/>
       <path id="CMSS17-69" d="M 979 4183 
L 442 4183 
L 442 3648 
L 979 3648 
L 979 4183 
z
M 947 2739 
L 474 2739 
L 474 0 
L 947 0 
L 947 2739 
z
" transform="scale(0.015625)"/>
       <path id="CMSS17-6e" d="M 2618 1877 
C 2618 2283 2522 2816 1798 2816 
C 1389 2816 1120 2606 941 2389 
L 941 2758 
L 474 2758 
L 474 0 
L 960 0 
L 960 1559 
C 960 1964 1114 2428 1549 2428 
C 2112 2428 2131 2048 2131 1829 
L 2131 0 
L 2618 0 
L 2618 1877 
z
" transform="scale(0.015625)"/>
       <path id="CMSS17-67" d="M 2848 2808 
C 2483 2808 2170 2738 1914 2617 
C 1702 2777 1485 2808 1338 2808 
C 781 2808 358 2349 358 1814 
C 358 1468 550 1207 563 1195 
C 448 1035 384 863 384 672 
C 384 448 474 289 544 200 
C 211 -3 166 -314 166 -435 
C 166 -898 749 -1280 1498 -1280 
C 2253 -1280 2835 -898 2835 -428 
C 2835 448 1856 448 1587 448 
L 1069 448 
C 973 448 717 448 717 791 
C 717 921 774 1004 781 1010 
C 877 940 1075 832 1338 832 
C 1869 832 2310 1278 2310 1827 
C 2310 2132 2170 2355 2112 2432 
L 2131 2432 
C 2150 2432 2419 2432 2515 2432 
C 2720 2432 2739 2429 2918 2419 
L 2848 2808 
z
M 1338 1182 
C 1120 1182 813 1315 813 1823 
C 813 2375 1165 2464 1331 2464 
C 1549 2464 1856 2331 1856 1823 
C 1856 1271 1504 1182 1338 1182 
z
M 1581 -10 
C 1734 -10 2381 -10 2381 -442 
C 2381 -714 1984 -929 1504 -929 
C 1018 -929 621 -720 621 -435 
C 621 -403 621 -10 1062 -10 
L 1581 -10 
z
" transform="scale(0.015625)"/>
       <path id="CMSS17-53" d="M 2797 4169 
C 2515 4334 2208 4480 1690 4480 
C 864 4480 333 3879 333 3266 
C 333 3025 403 2753 653 2475 
C 902 2196 1184 2121 1542 2033 
C 1690 1994 1939 1924 1984 1906 
C 2342 1767 2515 1444 2515 1140 
C 2515 742 2202 318 1645 318 
C 1453 318 890 318 358 819 
L 269 318 
C 794 -64 1363 -128 1651 -128 
C 2438 -128 3002 488 3002 1186 
C 3002 1440 2925 1763 2656 2061 
C 2394 2347 2163 2410 1638 2549 
C 1338 2626 1146 2677 986 2873 
C 877 3013 819 3146 819 3317 
C 819 3673 1126 4060 1690 4060 
C 1971 4060 2336 4002 2707 3660 
L 2797 4169 
z
" transform="scale(0.015625)"/>
       <path id="CMSS17-74" d="M 1069 2368 
L 1901 2368 
L 1901 2737 
L 1069 2737 
L 1069 3520 
L 614 3520 
L 614 2737 
L 109 2737 
L 109 2368 
L 602 2368 
L 602 749 
C 602 384 685 -64 1107 -64 
C 1427 -64 1722 25 2003 172 
L 1901 548 
C 1747 414 1562 337 1363 337 
C 1082 337 1069 696 1069 856 
L 1069 2368 
z
" transform="scale(0.015625)"/>
       <path id="CMSS17-65" d="M 2502 1377 
C 2502 1590 2490 2003 2285 2345 
C 2061 2713 1696 2816 1421 2816 
C 755 2816 192 2188 192 1375 
C 192 582 774 -64 1510 -64 
C 1798 -64 2150 19 2470 248 
C 2470 274 2458 414 2451 420 
C 2451 433 2432 630 2432 656 
C 2125 407 1773 325 1517 325 
C 1107 325 666 667 646 1377 
L 2502 1377 
z
M 698 1728 
C 781 2084 1062 2421 1421 2421 
C 1517 2421 1965 2421 2080 1728 
L 698 1728 
z
" transform="scale(0.015625)"/>
       <path id="CMSS17-70" d="M 966 333 
C 1178 129 1466 -5 1773 -5 
C 2368 -5 2880 603 2880 1412 
C 2880 2159 2496 2816 1946 2816 
C 1626 2816 1242 2702 954 2472 
L 954 2765 
L 480 2765 
L 480 -1216 
L 966 -1216 
L 966 333 
z
M 966 2100 
C 1018 2176 1235 2415 1587 2415 
C 2035 2415 2394 1960 2394 1412 
C 2394 787 1958 384 1530 384 
C 1402 384 1267 415 1139 523 
C 966 674 966 768 966 857 
L 966 2100 
z
" transform="scale(0.015625)"/>
       <path id="CMSS17-73" d="M 2061 2627 
C 1683 2807 1389 2807 1197 2807 
C 742 2807 198 2648 198 2003 
C 198 1359 902 1218 1094 1179 
C 1389 1122 1715 1058 1715 740 
C 1715 337 1254 337 1171 337 
C 915 337 563 407 243 638 
L 166 210 
C 531 0 883 -64 1178 -64 
C 1965 -64 2163 416 2163 781 
C 2163 1094 1984 1305 1862 1401 
C 1651 1568 1574 1587 1050 1696 
C 960 1709 646 1779 646 2066 
C 646 2432 1050 2432 1139 2432 
C 1555 2432 1811 2303 1984 2208 
L 2061 2627 
z
" transform="scale(0.015625)"/>
      </defs>
      <use xlink:href="#CMSS17-54" transform="scale(0.996264)"/>
      <use xlink:href="#CMSS17-72" transform="translate(56.012199 0) scale(0.996264)"/>
      <use xlink:href="#CMSS17-61" transform="translate(87.921971 0) scale(0.996264)"/>
      <use xlink:href="#CMSS17-69" transform="translate(132.843892 0) scale(0.996264)"/>
      <use xlink:href="#CMSS17-6e" transform="translate(155.024615 0) scale(0.996264)"/>
      <use xlink:href="#CMSS17-69" transform="translate(203.229558 0) scale(0.996264)"/>
      <use xlink:href="#CMSS17-6e" transform="translate(225.410281 0) scale(0.996264)"/>
      <use xlink:href="#CMSS17-67" transform="translate(273.615224 0) scale(0.996264)"/>
      <use xlink:href="#CMSS17-53" transform="translate(351.68796 0) scale(0.996264)"/>
      <use xlink:href="#CMSS17-74" transform="translate(403.736476 0) scale(0.996264)"/>
      <use xlink:href="#CMSS17-65" transform="translate(437.568043 0) scale(0.996264)"/>
      <use xlink:href="#CMSS17-70" transform="translate(479.206865 0) scale(0.996264)"/>
      <use xlink:href="#CMSS17-73" transform="translate(527.411808 0) scale(0.996264)"/>
     </g>
    </g>
   </g>
   <g id="matplotlib.axis_2">
    <g id="ytick_1">
     <g id="line2d_7">
      <path d="M 71.624404 317.715227 
L 406.424404 317.715227 
" clip-path="url(#p289ab2a467)" style="fill: none; stroke: #b0b0b0; stroke-opacity: 0.1; stroke-width: 0.8; stroke-linecap: square"/>
     </g>
     <g id="line2d_8">
      <defs>
       <path id="m1c27415c44" d="M 0 0 
L -3.5 0 
" style="stroke: #000000; stroke-width: 0.8"/>
      </defs>
      <g>
       <use xlink:href="#m1c27415c44" x="71.624404" y="317.715227" style="stroke: #000000; stroke-width: 0.8"/>
      </g>
     </g>
     <g id="text_5">
      <!-- $\mathdefault{−100}$ -->
      <g transform="translate(21.71263 324.633725) scale(0.2 -0.2)">
       <defs>
        <path id="CMSY10-0" d="M 4218 1472 
C 4326 1472 4442 1472 4442 1600 
C 4442 1728 4326 1728 4218 1728 
L 755 1728 
C 646 1728 531 1728 531 1600 
C 531 1472 646 1472 755 1472 
L 4218 1472 
z
" transform="scale(0.015625)"/>
        <path id="CMR17-31" d="M 1702 4058 
C 1702 4192 1696 4192 1606 4192 
C 1357 3916 979 3827 621 3827 
C 602 3827 570 3827 563 3808 
C 557 3795 557 3782 557 3648 
C 755 3648 1088 3686 1344 3839 
L 1344 461 
C 1344 236 1331 160 781 160 
L 589 160 
L 589 0 
C 896 0 1216 0 1523 0 
C 1830 0 2150 0 2458 0 
L 2458 160 
L 2266 160 
C 1715 160 1702 230 1702 458 
L 1702 4058 
z
" transform="scale(0.015625)"/>
       </defs>
       <use xlink:href="#CMSY10-0" transform="scale(0.996264)"/>
       <use xlink:href="#CMR17-31" transform="translate(77.487468 0) scale(0.996264)"/>
       <use xlink:href="#CMR17-30" transform="translate(123.177945 0) scale(0.996264)"/>
       <use xlink:href="#CMR17-30" transform="translate(168.868422 0) scale(0.996264)"/>
      </g>
     </g>
    </g>
    <g id="ytick_2">
     <g id="line2d_9">
      <path d="M 71.624404 241.110929 
L 406.424404 241.110929 
" clip-path="url(#p289ab2a467)" style="fill: none; stroke: #b0b0b0; stroke-opacity: 0.1; stroke-width: 0.8; stroke-linecap: square"/>
     </g>
     <g id="line2d_10">
      <g>
       <use xlink:href="#m1c27415c44" x="71.624404" y="241.110929" style="stroke: #000000; stroke-width: 0.8"/>
      </g>
     </g>
     <g id="text_6">
      <!-- $\mathdefault{−50}$ -->
      <g transform="translate(30.850726 248.029428) scale(0.2 -0.2)">
       <defs>
        <path id="CMR17-35" d="M 730 3692 
C 794 3666 1056 3584 1325 3584 
C 1920 3584 2246 3911 2432 4100 
C 2432 4157 2432 4192 2394 4192 
C 2387 4192 2374 4192 2323 4163 
C 2099 4058 1837 3973 1517 3973 
C 1325 3973 1037 3999 723 4139 
C 653 4171 640 4171 634 4171 
C 602 4171 595 4164 595 4037 
L 595 2203 
C 595 2089 595 2057 659 2057 
C 691 2057 704 2070 736 2114 
C 941 2401 1222 2522 1542 2522 
C 1766 2522 2246 2382 2246 1289 
C 2246 1085 2246 715 2054 421 
C 1894 159 1645 25 1370 25 
C 947 25 518 320 403 814 
C 429 807 480 795 506 795 
C 589 795 749 840 749 1038 
C 749 1210 627 1280 506 1280 
C 358 1280 262 1190 262 1011 
C 262 454 704 -128 1382 -128 
C 2042 -128 2669 440 2669 1264 
C 2669 2030 2170 2624 1549 2624 
C 1222 2624 947 2503 730 2274 
L 730 3692 
z
" transform="scale(0.015625)"/>
       </defs>
       <use xlink:href="#CMSY10-0" transform="scale(0.996264)"/>
       <use xlink:href="#CMR17-35" transform="translate(77.487468 0) scale(0.996264)"/>
       <use xlink:href="#CMR17-30" transform="translate(123.177945 0) scale(0.996264)"/>
      </g>
     </g>
    </g>
    <g id="ytick_3">
     <g id="line2d_11">
      <path d="M 71.624404 164.506632 
L 406.424404 164.506632 
" clip-path="url(#p289ab2a467)" style="fill: none; stroke: #b0b0b0; stroke-opacity: 0.1; stroke-width: 0.8; stroke-linecap: square"/>
     </g>
     <g id="line2d_12">
      <g>
       <use xlink:href="#m1c27415c44" x="71.624404" y="164.506632" style="stroke: #000000; stroke-width: 0.8"/>
      </g>
     </g>
     <g id="text_7">
      <!-- $\mathdefault{0}$ -->
      <g transform="translate(55.486309 171.42513) scale(0.2 -0.2)">
       <use xlink:href="#CMR17-30" transform="scale(0.996264)"/>
      </g>
     </g>
    </g>
    <g id="ytick_4">
     <g id="line2d_13">
      <path d="M 71.624404 87.902334 
L 406.424404 87.902334 
" clip-path="url(#p289ab2a467)" style="fill: none; stroke: #b0b0b0; stroke-opacity: 0.1; stroke-width: 0.8; stroke-linecap: square"/>
     </g>
     <g id="line2d_14">
      <g>
       <use xlink:href="#m1c27415c44" x="71.624404" y="87.902334" style="stroke: #000000; stroke-width: 0.8"/>
      </g>
     </g>
     <g id="text_8">
      <!-- $\mathdefault{50}$ -->
      <g transform="translate(46.348213 94.820833) scale(0.2 -0.2)">
       <use xlink:href="#CMR17-35" transform="scale(0.996264)"/>
       <use xlink:href="#CMR17-30" transform="translate(45.690477 0) scale(0.996264)"/>
      </g>
     </g>
    </g>
    <g id="ytick_5">
     <g id="line2d_15">
      <path d="M 71.624404 11.298037 
L 406.424404 11.298037 
" clip-path="url(#p289ab2a467)" style="fill: none; stroke: #b0b0b0; stroke-opacity: 0.1; stroke-width: 0.8; stroke-linecap: square"/>
     </g>
     <g id="line2d_16">
      <g>
       <use xlink:href="#m1c27415c44" x="71.624404" y="11.298037" style="stroke: #000000; stroke-width: 0.8"/>
      </g>
     </g>
     <g id="text_9">
      <!-- $\mathdefault{100}$ -->
      <g transform="translate(37.210118 18.216535) scale(0.2 -0.2)">
       <use xlink:href="#CMR17-31" transform="scale(0.996264)"/>
       <use xlink:href="#CMR17-30" transform="translate(45.690477 0) scale(0.996264)"/>
       <use xlink:href="#CMR17-30" transform="translate(91.380954 0) scale(0.996264)"/>
      </g>
     </g>
    </g>
    <g id="text_10">
     <!-- Episode Return -->
     <g transform="translate(13.836997 226.011615) rotate(-90) scale(0.2 -0.2)">
      <defs>
       <path id="CMSS17-45" d="M 1958 433 
C 1446 433 1216 433 1101 433 
L 1101 2107 
L 3085 2107 
L 3085 2496 
L 1101 2496 
L 1101 4009 
L 1926 4009 
C 2003 4009 2080 4009 2157 4009 
L 3251 4009 
L 3251 4416 
L 563 4416 
L 563 0 
L 3334 0 
L 3334 433 
L 1958 433 
z
" transform="scale(0.015625)"/>
       <path id="CMSS17-6f" d="M 2829 1356 
C 2829 2176 2221 2816 1504 2816 
C 768 2816 173 2157 173 1356 
C 173 544 787 -64 1498 -64 
C 2227 -64 2829 563 2829 1356 
z
M 1504 337 
C 1050 337 659 709 659 1408 
C 659 2151 1114 2427 1498 2427 
C 1914 2427 2342 2126 2342 1408 
C 2342 683 1926 337 1504 337 
z
" transform="scale(0.015625)"/>
       <path id="CMSS17-64" d="M 2611 4416 
L 2138 4416 
L 2138 2438 
C 1939 2603 1613 2756 1254 2756 
C 672 2756 211 2131 211 1347 
C 211 562 666 -64 1235 -64 
C 1677 -64 1971 172 2125 306 
L 2125 -13 
L 2611 -13 
L 2611 4416 
z
M 2125 836 
C 2125 747 2125 653 1926 482 
C 1798 375 1645 325 1498 325 
C 1152 325 698 576 698 1340 
C 698 2134 1210 2368 1562 2368 
C 1798 2368 1990 2254 2125 2065 
L 2125 836 
z
" transform="scale(0.015625)"/>
       <path id="CMSS17-52" d="M 2522 2109 
L 2534 2115 
C 3533 2459 3539 3147 3539 3268 
C 3539 3873 2925 4453 2003 4453 
L 570 4453 
L 570 32 
L 1094 32 
L 1094 2048 
L 2035 2048 
L 3168 32 
L 3706 32 
L 2522 2109 
z
M 1094 2437 
L 1094 4096 
L 1933 4096 
C 2746 4096 3034 3637 3034 3267 
C 3034 2922 2778 2437 1933 2437 
L 1094 2437 
z
" transform="scale(0.015625)"/>
       <path id="CMSS17-75" d="M 2618 2739 
L 2131 2739 
L 2131 972 
C 2131 498 1786 306 1421 306 
C 998 306 960 447 960 709 
L 960 2739 
L 474 2739 
L 474 678 
C 474 179 646 -64 1088 -64 
C 1306 -64 1798 -13 2144 306 
L 2144 0 
L 2618 0 
L 2618 2739 
z
" transform="scale(0.015625)"/>
      </defs>
      <use xlink:href="#CMSS17-45" transform="scale(0.996264)"/>
      <use xlink:href="#CMSS17-70" transform="translate(55.892013 0) scale(0.996264)"/>
      <use xlink:href="#CMSS17-69" transform="translate(104.096956 0) scale(0.996264)"/>
      <use xlink:href="#CMSS17-73" transform="translate(126.277679 0) scale(0.996264)"/>
      <use xlink:href="#CMSS17-6f" transform="translate(162.191221 0) scale(0.996264)"/>
      <use xlink:href="#CMSS17-64" transform="translate(211.637284 0) scale(0.996264)"/>
      <use xlink:href="#CMSS17-65" transform="translate(259.842227 0) scale(0.996264)"/>
      <use xlink:href="#CMSS17-52" transform="translate(332.710162 0) scale(0.996264)"/>
      <use xlink:href="#CMSS17-65" transform="translate(393.126316 0) scale(0.996264)"/>
      <use xlink:href="#CMSS17-74" transform="translate(434.765139 0) scale(0.996264)"/>
      <use xlink:href="#CMSS17-75" transform="translate(468.596705 0) scale(0.996264)"/>
      <use xlink:href="#CMSS17-72" transform="translate(516.801648 0) scale(0.996264)"/>
      <use xlink:href="#CMSS17-6e" transform="translate(548.711421 0) scale(0.996264)"/>
     </g>
    </g>
   </g>
   <g id="line2d_17">
    <path d="M 86.842586 164.576251 
L 90.01304 164.514874 
L 93.183495 164.632028 
L 96.35395 164.506785 
L 99.524404 164.532937 
L 102.694859 164.509381 
L 105.865313 164.51243 
L 109.035768 164.885798 
L 112.206222 164.562431 
L 115.376677 164.732436 
L 118.547131 164.510518 
L 121.717586 164.582302 
L 124.88804 164.625736 
L 128.058495 164.78195 
L 131.22895 164.821665 
L 134.399404 164.58749 
L 137.569859 164.857979 
L 140.740313 164.620169 
L 143.910768 165.807342 
L 147.081222 164.719769 
L 150.251677 164.780267 
L 153.422131 164.858886 
L 156.592586 164.648751 
L 159.76304 165.096183 
L 162.933495 164.551904 
L 166.10395 164.677094 
L 169.274404 164.685755 
L 172.444859 167.102443 
L 175.615313 165.744765 
L 178.785768 165.432557 
L 181.956222 164.573347 
L 185.126677 166.940225 
L 188.297131 164.559787 
L 191.467586 15.579449 
L 194.63804 15.518139 
L 197.808495 15.840001 
L 200.97895 16.22253 
L 204.149404 17.554145 
L 207.319859 18.91797 
L 210.490313 20.565593 
L 213.660768 24.623174 
L 216.831222 26.222313 
L 220.001677 33.120027 
L 223.172131 33.01006 
L 226.342586 101.04727 
L 229.51304 176.825672 
L 232.683495 36.813 
L 235.85395 114.156084 
L 239.024404 175.726542 
L 242.194859 148.152511 
L 245.365313 246.907043 
L 248.535768 111.351772 
L 251.706222 19.849625 
L 254.876677 19.974936 
L 258.047131 20.050305 
L 261.217586 20.00897 
L 264.38804 19.93067 
L 267.558495 20.124006 
L 270.72895 20.016973 
L 273.899404 20.05267 
L 277.069859 20.204521 
L 280.240313 20.080726 
L 283.410768 20.770797 
L 286.581222 22.297985 
L 289.751677 22.58911 
L 292.922131 22.502469 
L 296.092586 22.211983 
L 299.26304 21.319186 
L 302.433495 20.998705 
L 305.60395 21.125752 
L 308.774404 21.118375 
L 311.944859 21.060481 
L 315.115313 24.014681 
L 318.285768 24.058865 
L 321.456222 25.106472 
L 324.626677 24.629097 
L 327.797131 24.928816 
L 330.967586 24.910544 
L 334.13804 24.881734 
L 337.308495 24.800172 
L 340.47895 25.052702 
L 343.649404 24.700411 
L 346.819859 22.434605 
L 349.990313 22.303481 
L 353.160768 21.218836 
L 356.331222 21.100501 
L 359.501677 20.953658 
L 362.672131 20.970288 
L 365.842586 21.035255 
L 369.01304 21.014354 
L 372.183495 20.954334 
L 375.35395 20.741253 
L 378.524404 20.934871 
L 381.694859 20.789652 
L 384.865313 20.692614 
L 388.035768 20.814177 
L 391.206222 20.774025 
" clip-path="url(#p289ab2a467)" style="fill: none; stroke: #3498db; stroke-width: 2; stroke-linecap: square"/>
   </g>
   <g id="patch_3">
    <path d="M 71.624404 332.64 
L 71.624404 0 
" style="fill: none; stroke: #000000; stroke-width: 0.8; stroke-linejoin: miter; stroke-linecap: square"/>
   </g>
   <g id="patch_4">
    <path d="M 406.424404 332.64 
L 406.424404 0 
" style="fill: none; stroke: #000000; stroke-width: 0.8; stroke-linejoin: miter; stroke-linecap: square"/>
   </g>
   <g id="patch_5">
    <path d="M 71.624404 332.64 
L 406.424404 332.64 
" style="fill: none; stroke: #000000; stroke-width: 0.8; stroke-linejoin: miter; stroke-linecap: square"/>
   </g>
   <g id="patch_6">
    <path d="M 71.624404 0 
L 406.424404 0 
" style="fill: none; stroke: #000000; stroke-width: 0.8; stroke-linejoin: miter; stroke-linecap: square"/>
   </g>
  </g>
 </g>
 <defs>
  <clipPath id="p289ab2a467">
   <rect x="71.624404" y="0" width="334.8" height="332.64"/>
  </clipPath>
 </defs>
</svg>
